%TF.GenerationSoftware,KiCad,Pcbnew,6.0.11+dfsg-1*%
%TF.CreationDate,2024-02-11T13:02:19+01:00*%
%TF.ProjectId,kosmo-panel-blank-2.5cm,6b6f736d-6f2d-4706-916e-656c2d626c61,rev?*%
%TF.SameCoordinates,Original*%
%TF.FileFunction,Copper,L2,Bot*%
%TF.FilePolarity,Positive*%
%FSLAX46Y46*%
G04 Gerber Fmt 4.6, Leading zero omitted, Abs format (unit mm)*
G04 Created by KiCad (PCBNEW 6.0.11+dfsg-1) date 2024-02-11 13:02:19*
%MOMM*%
%LPD*%
G01*
G04 APERTURE LIST*
%TA.AperFunction,ComponentPad*%
%ADD10O,6.800000X4.000000*%
%TD*%
G04 APERTURE END LIST*
D10*
%TO.P,REF\u002A\u002A,1*%
%TO.N,GND*%
X44400000Y-247000000D03*
X44400000Y-53000000D03*
%TD*%
%TA.AperFunction,Conductor*%
%TO.N,GND*%
G36*
X64433621Y-50528502D02*
G01*
X64480114Y-50582158D01*
X64491500Y-50634500D01*
X64491500Y-249365500D01*
X64471498Y-249433621D01*
X64417842Y-249480114D01*
X64365500Y-249491500D01*
X46959360Y-249491500D01*
X46891239Y-249471498D01*
X46844746Y-249417842D01*
X46834642Y-249347568D01*
X46864136Y-249282988D01*
X46905712Y-249251492D01*
X47007041Y-249203810D01*
X47013974Y-249199999D01*
X47273729Y-249035153D01*
X47280132Y-249030502D01*
X47517187Y-248834393D01*
X47522954Y-248828977D01*
X47733557Y-248604707D01*
X47738596Y-248598616D01*
X47919430Y-248349719D01*
X47923670Y-248343039D01*
X48071890Y-248073428D01*
X48075247Y-248066293D01*
X48188508Y-247780230D01*
X48190953Y-247772704D01*
X48267462Y-247474721D01*
X48268945Y-247466950D01*
X48293575Y-247271974D01*
X48291272Y-247257694D01*
X48278280Y-247254000D01*
X44272000Y-247254000D01*
X44203879Y-247233998D01*
X44157386Y-247180342D01*
X44146000Y-247128000D01*
X44146000Y-246727885D01*
X44654000Y-246727885D01*
X44658475Y-246743124D01*
X44659865Y-246744329D01*
X44667548Y-246746000D01*
X48277731Y-246746000D01*
X48291608Y-246741925D01*
X48293645Y-246728574D01*
X48268945Y-246533050D01*
X48267462Y-246525279D01*
X48190953Y-246227296D01*
X48188508Y-246219770D01*
X48075247Y-245933707D01*
X48071890Y-245926572D01*
X47923670Y-245656961D01*
X47919430Y-245650281D01*
X47738596Y-245401384D01*
X47733557Y-245395293D01*
X47522954Y-245171023D01*
X47517187Y-245165607D01*
X47280132Y-244969498D01*
X47273729Y-244964847D01*
X47013974Y-244800001D01*
X47007041Y-244796189D01*
X46728672Y-244665199D01*
X46721309Y-244662284D01*
X46428723Y-244567217D01*
X46421046Y-244565246D01*
X46118855Y-244507600D01*
X46110994Y-244506607D01*
X45880820Y-244492126D01*
X45876829Y-244492000D01*
X44672115Y-244492000D01*
X44656876Y-244496475D01*
X44655671Y-244497865D01*
X44654000Y-244505548D01*
X44654000Y-246727885D01*
X44146000Y-246727885D01*
X44146000Y-244510115D01*
X44141525Y-244494876D01*
X44140135Y-244493671D01*
X44132452Y-244492000D01*
X42923171Y-244492000D01*
X42919180Y-244492126D01*
X42689006Y-244506607D01*
X42681145Y-244507600D01*
X42378954Y-244565246D01*
X42371277Y-244567217D01*
X42078691Y-244662284D01*
X42071328Y-244665199D01*
X41792959Y-244796189D01*
X41786026Y-244800001D01*
X41526271Y-244964847D01*
X41519868Y-244969498D01*
X41282813Y-245165607D01*
X41277046Y-245171023D01*
X41066443Y-245395293D01*
X41061404Y-245401384D01*
X40880570Y-245650281D01*
X40876330Y-245656961D01*
X40744915Y-245896004D01*
X40694569Y-245946063D01*
X40625152Y-245960956D01*
X40558703Y-245935955D01*
X40516319Y-245878998D01*
X40508500Y-245835303D01*
X40508500Y-54164697D01*
X40528502Y-54096576D01*
X40582158Y-54050083D01*
X40652432Y-54039979D01*
X40717012Y-54069473D01*
X40744915Y-54103996D01*
X40876330Y-54343039D01*
X40880570Y-54349719D01*
X41061404Y-54598616D01*
X41066443Y-54604707D01*
X41277046Y-54828977D01*
X41282813Y-54834393D01*
X41519868Y-55030502D01*
X41526271Y-55035153D01*
X41786026Y-55199999D01*
X41792959Y-55203811D01*
X42071328Y-55334801D01*
X42078691Y-55337716D01*
X42371277Y-55432783D01*
X42378954Y-55434754D01*
X42681145Y-55492400D01*
X42689006Y-55493393D01*
X42919180Y-55507874D01*
X42923171Y-55508000D01*
X44127885Y-55508000D01*
X44143124Y-55503525D01*
X44144329Y-55502135D01*
X44146000Y-55494452D01*
X44146000Y-55489885D01*
X44654000Y-55489885D01*
X44658475Y-55505124D01*
X44659865Y-55506329D01*
X44667548Y-55508000D01*
X45876829Y-55508000D01*
X45880820Y-55507874D01*
X46110994Y-55493393D01*
X46118855Y-55492400D01*
X46421046Y-55434754D01*
X46428723Y-55432783D01*
X46721309Y-55337716D01*
X46728672Y-55334801D01*
X47007041Y-55203811D01*
X47013974Y-55199999D01*
X47273729Y-55035153D01*
X47280132Y-55030502D01*
X47517187Y-54834393D01*
X47522954Y-54828977D01*
X47733557Y-54604707D01*
X47738596Y-54598616D01*
X47919430Y-54349719D01*
X47923670Y-54343039D01*
X48071890Y-54073428D01*
X48075247Y-54066293D01*
X48188508Y-53780230D01*
X48190953Y-53772704D01*
X48267462Y-53474721D01*
X48268945Y-53466950D01*
X48293575Y-53271974D01*
X48291272Y-53257694D01*
X48278280Y-53254000D01*
X44672115Y-53254000D01*
X44656876Y-53258475D01*
X44655671Y-53259865D01*
X44654000Y-53267548D01*
X44654000Y-55489885D01*
X44146000Y-55489885D01*
X44146000Y-52872000D01*
X44166002Y-52803879D01*
X44219658Y-52757386D01*
X44272000Y-52746000D01*
X48277731Y-52746000D01*
X48291608Y-52741925D01*
X48293645Y-52728574D01*
X48268945Y-52533050D01*
X48267462Y-52525279D01*
X48190953Y-52227296D01*
X48188508Y-52219770D01*
X48075247Y-51933707D01*
X48071890Y-51926572D01*
X47923670Y-51656961D01*
X47919430Y-51650281D01*
X47738596Y-51401384D01*
X47733557Y-51395293D01*
X47522954Y-51171023D01*
X47517187Y-51165607D01*
X47280132Y-50969498D01*
X47273729Y-50964847D01*
X47013974Y-50800001D01*
X47007041Y-50796190D01*
X46905712Y-50748508D01*
X46852591Y-50701406D01*
X46833368Y-50633061D01*
X46854147Y-50565173D01*
X46908330Y-50519296D01*
X46959360Y-50508500D01*
X64365500Y-50508500D01*
X64433621Y-50528502D01*
G37*
%TD.AperFunction*%
%TD*%
M02*
